<?xml version="1.0" encoding="UTF-8"?>
<svg width="800px" height="800px" viewBox="0 0 48 48" version="1.1" xmlns="http://www.w3.org/2000/svg">
    <title>risk_history_48_regular</title>
    <g stroke="none" stroke-width="1" fill="none" fill-rule="evenodd">
        <g fill="#212121" fill-rule="nonzero">
            <path d="M24,4 C33.9411255,4 42,12.0588745 42,22 C42,31.9411255 33.9411255,40 24,40 C19.6165735,40 15.5953813,38.4385371 12.4721771,35.8514395 L11.707,35.121 L9.414,37.4142136 C8.63305108,38.1951625 7.38308099,38.2218969 6.57000315,37.5003662 L6.41421356,37.3492545 C5.63326464,36.5683056 5.60653027,35.3183355 6.32806096,34.5052576 L6.47924886,34.3492545 L8.8,32.029 L8.14855949,31.2121046 C6.18399492,28.6093814 5,25.3733581 5,22 C5,12.0588745 13.0588745,4 23,4 L24,4 Z M24,6.5 C14.3416545,6.5 6.5,14.3416545 6.5,24 C6.5,33.6583455 14.3416545,41.5 24,41.5 C33.6583455,41.5 41.5,33.6583455 41.5,24 C41.5,14.3416545 33.6583455,6.5 24,6.5 Z M24,9 C32.2842712,9 39,15.7157288 39,24 C39,32.2842712 32.2842712,39 24,39 C15.7157288,39 9,32.2842712 9,24 C9,15.7157288 15.7157288,9 24,9 Z M23.75,12.5 C23.0596441,12.5 22.5,13.0596441 22.5,13.75 L22.5,24.25 C22.5,24.6297052 22.6679693,24.9902796 22.9586279,25.2372861 L29.2086279,30.4872861 C29.71353,30.9065268 30.4607902,30.8393635 30.8800308,30.3344611 C31.2992715,29.8295587 31.2321082,29.0822885 30.7272058,28.6630478 L25,23.8035682 L25,13.75 C25,13.0596441 24.4403559,12.5 23.75,12.5 Z M14,22.5 C13.3096441,22.5 12.75,23.0596441 12.75,23.75 C12.75,24.4403559 13.3096441,25 14,25 L17,25 C17.6903559,25 18.25,24.4403559 18.25,23.75 C18.25,23.0596441 17.6903559,22.5 17,22.5 L14,22.5 Z"
                  id="shape"/>
        </g>
    </g>
</svg>